<svg width="227" height="49" viewBox="0 0 227 49" fill="none" xmlns="http://www.w3.org/2000/svg">
<path d="M24.8985 28.7233C24.5371 31.8155 23.3925 34.205 21.4649 35.8917C19.5507 37.5649 17.0006 38.4016 13.8146 38.4016C10.361 38.4016 7.59002 37.1634 5.50176 34.6869C3.42689 32.2104 2.38945 28.8973 2.38945 24.7476V21.9365C2.38945 19.219 2.87136 16.8296 3.83517 14.7681C4.81237 12.7066 6.19115 11.127 7.97153 10.0294C9.75191 8.91831 11.8134 8.36277 14.156 8.36277C17.2616 8.36277 19.7515 9.23288 21.6255 10.9731C23.4996 12.6999 24.5906 15.0961 24.8985 18.1615H21.0232C20.6885 15.8323 19.9589 14.1456 18.8345 13.1015C17.7234 12.0574 16.1639 11.5353 14.156 11.5353C11.6929 11.5353 9.7586 12.4456 8.35304 14.2661C6.96087 16.0867 6.26478 18.6769 6.26478 22.0369V24.8681C6.26478 28.0406 6.9274 30.5639 8.25264 32.438C9.57788 34.3121 11.4319 35.2491 13.8146 35.2491C15.9564 35.2491 17.5963 34.7672 18.7341 33.8034C19.8853 32.8262 20.6483 31.1328 21.0232 28.7233H24.8985ZM52.6683 24.3259C52.6683 27.1906 52.1864 29.6938 51.2226 31.8356C50.2588 33.964 48.8934 35.5905 47.1264 36.7149C45.3594 37.8394 43.2979 38.4016 40.9419 38.4016C38.6395 38.4016 36.5981 37.8394 34.8177 36.7149C33.0373 35.5771 31.6519 33.964 30.6613 31.8758C29.6841 29.7741 29.1821 27.3445 29.1553 24.5869V22.4786C29.1553 19.6675 29.6439 17.1843 30.6211 15.0291C31.5983 12.874 32.9771 11.2274 34.7575 10.0896C36.5512 8.93838 38.5993 8.36277 40.9018 8.36277C43.2444 8.36277 45.3059 8.93169 47.0862 10.0695C48.88 11.194 50.2588 12.8338 51.2226 14.989C52.1864 17.1308 52.6683 19.6273 52.6683 22.4786V24.3259ZM48.8332 22.4384C48.8332 18.9714 48.1371 16.3142 46.7449 14.4669C45.3527 12.6062 43.405 11.6759 40.9018 11.6759C38.4655 11.6759 36.5445 12.6062 35.139 14.4669C33.7468 16.3142 33.0306 18.8844 32.9905 22.1774V24.3259C32.9905 27.6859 33.6933 30.3297 35.0988 32.2573C36.5178 34.1715 38.4655 35.1286 40.9419 35.1286C43.4318 35.1286 45.3594 34.2251 46.7248 32.4179C48.0902 30.5974 48.793 27.9938 48.8332 24.607V22.4384ZM80.9201 38H77.0447L62.3265 15.4709V38H58.4512V8.76436H62.3265L77.0849 31.3939V8.76436H80.9201V38ZM107.365 11.9369H97.9675V38H94.1323V11.9369H84.7552V8.76436H107.365V11.9369ZM126.239 30.3698H113.991L111.24 38H107.264L118.428 8.76436H121.802L132.986 38H129.03L126.239 30.3698ZM115.155 27.1973H125.095L120.115 13.5232L115.155 27.1973ZM136.922 38V8.76436H145.174C147.718 8.76436 149.967 9.32659 151.921 10.451C153.875 11.5755 155.381 13.1751 156.439 15.25C157.51 17.3249 158.052 19.7076 158.065 22.3983V24.2657C158.065 27.0232 157.53 29.4395 156.459 31.5143C155.401 33.5892 153.882 35.1822 151.901 36.2932C149.933 37.4043 147.637 37.9732 145.014 38H136.922ZM140.777 11.9369V34.8475H144.833C147.805 34.8475 150.114 33.9239 151.76 32.0766C153.42 30.2293 154.25 27.5989 154.25 24.1854V22.4786C154.25 19.1588 153.467 16.582 151.901 14.748C150.348 12.9007 148.139 11.9637 145.275 11.9369H140.777ZM215.432 26.1732H208.565V38H204.69V8.76436H214.368C217.661 8.76436 220.191 9.51399 221.958 11.0133C223.738 12.5125 224.628 14.6945 224.628 17.5591C224.628 19.3797 224.133 20.966 223.143 22.318C222.165 23.67 220.8 24.6807 219.046 25.35L225.914 37.759V38H221.777L215.432 26.1732ZM208.565 23.0208H214.488C216.403 23.0208 217.922 22.5255 219.046 21.5349C220.184 20.5443 220.753 19.219 220.753 17.5591C220.753 15.752 220.211 14.3665 219.127 13.4027C218.056 12.4389 216.503 11.9503 214.468 11.9369H208.565V23.0208Z" fill="#D00FD3"/>
<path d="M198.947 20.2284H189.098C188.928 20.2284 188.79 20.3669 188.79 20.5362V22.3829C188.79 22.5522 188.928 22.6907 189.098 22.6907H198.947C199.116 22.6907 199.255 22.5522 199.255 22.3829V20.5362C199.255 20.3669 199.116 20.2284 198.947 20.2284ZM193.791 25.4608H189.098C188.928 25.4608 188.79 25.5993 188.79 25.7686V27.6153C188.79 27.7846 188.928 27.9231 189.098 27.9231H193.791C193.961 27.9231 194.099 27.7846 194.099 27.6153V25.7686C194.099 25.5993 193.961 25.4608 193.791 25.4608ZM180.953 16.7851H179.287C179.048 16.7851 178.856 16.9774 178.856 17.216V26.7574C178.856 26.8959 178.921 27.0228 179.033 27.1036L184.762 31.2818C184.954 31.4203 185.223 31.3818 185.362 31.1895L186.351 29.8391V29.8352C186.489 29.6429 186.447 29.3735 186.254 29.235L181.38 25.7109V17.216C181.384 16.9774 181.188 16.7851 180.953 16.7851V16.7851Z" fill="white"/>
<path d="M193.553 30.3046H191.329C191.114 30.3046 190.91 30.4162 190.794 30.6008C190.306 31.3742 189.736 32.0898 189.082 32.7438C187.955 33.8711 186.643 34.756 185.185 35.3715C183.673 36.0102 182.068 36.3334 180.414 36.3334C178.756 36.3334 177.152 36.0102 175.643 35.3715C174.185 34.756 172.873 33.8711 171.746 32.7438C170.619 31.6165 169.734 30.3046 169.118 28.8465C168.48 27.3383 168.157 25.734 168.157 24.0758C168.157 22.4176 168.48 20.8171 169.118 19.3051C169.734 17.8469 170.619 16.535 171.746 15.4077C172.873 14.2805 174.185 13.3956 175.643 12.78C177.152 12.1413 178.76 11.8182 180.414 11.8182C182.072 11.8182 183.677 12.1413 185.185 12.78C186.643 13.3956 187.955 14.2805 189.082 15.4077C189.736 16.0618 190.306 16.7774 190.794 17.5507C190.91 17.7354 191.114 17.8469 191.329 17.8469H193.553C193.818 17.8469 193.988 17.5699 193.868 17.3352C191.36 12.3453 186.274 9.10195 180.595 9.03654C172.281 8.93267 165.375 15.7386 165.36 24.045C165.344 32.3668 172.089 39.1188 180.41 39.1188C186.162 39.1188 191.333 35.864 193.868 30.8163C193.988 30.5816 193.814 30.3046 193.553 30.3046V30.3046Z" fill="white"/>
</svg>
